<svg xmlns="http://www.w3.org/2000/svg" width="96" height="96" fill="none" viewBox="0 0 96 96" id="gym">
  <path stroke="#FF8A00" stroke-width="5" d="M31.4301 58L45.8706 43.5595L57.9301 31.5M16.7051 72.7251L13.1695 76.2606C11.2169 78.2132 11.2169 81.379 13.1695 83.3317V83.3317C15.1222 85.2843 18.288 85.2843 20.2406 83.3317L23.7761 79.7961M38.5001 65.0721L64.5723 39M72.0001 17.43L76.7599 12.6702C78.7125 10.7176 81.8783 10.7176 83.831 12.6702V12.6702C85.7836 14.6228 85.7836 17.7887 83.831 19.7413L78.5001 25.0721"></path>
  <path fill="#FFF1CF" stroke="#FF8A00" stroke-width="5" d="M36.8326 78.0524L18.4479 59.6676C16.4952 57.715 13.3294 57.715 11.3768 59.6676 9.42416 61.6202 9.42417 64.786 11.3768 66.7386L20.2428 75.6047 29.7616 85.1234C31.7142 87.076 34.88 87.076 36.8326 85.1234 38.7853 83.1708 38.7853 80.005 36.8326 78.0524zM77.1383 37.7457L58.7535 19.3609C56.8009 17.4083 56.8009 14.2425 58.7535 12.2899 60.7061 10.3373 63.872 10.3373 65.8246 12.2899L74.6906 21.1559 84.2094 30.6747C86.162 32.6273 86.162 35.7931 84.2094 37.7457 82.2567 39.6983 79.0909 39.6983 77.1383 37.7457z"></path>
  <path fill="#FFF1CF" stroke="#FF8A00" stroke-width="5" d="M46.732 73.8102L22.6904 49.7685C20.7378 47.8159 17.572 47.8159 15.6193 49.7685 13.6667 51.7212 13.6667 54.887 15.6193 56.8396L27.2413 68.4615 39.661 80.8812C41.6136 82.8339 44.7794 82.8339 46.732 80.8812 48.6847 78.9286 48.6847 75.7628 46.732 73.8102zM72.8951 47.6461L48.8535 23.6045C46.9009 21.6519 46.9009 18.486 48.8535 16.5334 50.8061 14.5808 53.9719 14.5808 55.9246 16.5334L67.5465 28.1553 79.9662 40.575C81.9188 42.5277 81.9188 45.6935 79.9662 47.6461 78.0136 49.5987 74.8478 49.5987 72.8951 47.6461z"></path>
</svg>
